<svg width="17" height="19" viewBox="0 0 17 19" fill="none" xmlns="http://www.w3.org/2000/svg">
<path d="M12.3908 10.3511H9.64044C9.13621 10.3511 8.72366 10.7417 8.72366 11.2191V13.8232C8.72366 14.3006 9.13621 14.6912 9.64044 14.6912H12.3908C12.895 14.6912 13.3076 14.3006 13.3076 13.8232V11.2191C13.3076 10.7417 12.895 10.3511 12.3908 10.3511ZM12.3908 1.67077V2.5388H5.05655V1.67077C5.05655 1.19335 4.644 0.802734 4.13977 0.802734C3.63554 0.802734 3.22299 1.19335 3.22299 1.67077V2.5388H2.30621C1.28859 2.5388 0.481824 3.32003 0.481824 4.27486L0.472656 16.4273C0.472656 17.3821 1.28859 18.1634 2.30621 18.1634H15.1411C16.1496 18.1634 16.9747 17.3821 16.9747 16.4273V4.27486C16.9747 3.32003 16.1496 2.5388 15.1411 2.5388H14.2243V1.67077C14.2243 1.19335 13.8118 0.802734 13.3076 0.802734C12.8033 0.802734 12.3908 1.19335 12.3908 1.67077ZM14.2243 16.4273H3.22299C2.71876 16.4273 2.30621 16.0367 2.30621 15.5593V6.87895H15.1411V15.5593C15.1411 16.0367 14.7286 16.4273 14.2243 16.4273Z" fill="#4B4B4B"/>
</svg>
